<?xml version="1.0" standalone="no"?><!DOCTYPE svg PUBLIC "-//W3C//DTD SVG 1.1//EN" "http://www.w3.org/Graphics/SVG/1.1/DTD/svg11.dtd"><svg t="1511255346652" class="icon" style="" viewBox="0 0 1024 1024" version="1.1" xmlns="http://www.w3.org/2000/svg" p-id="2455" xmlns:xlink="http://www.w3.org/1999/xlink" width="200" height="200"><defs><style type="text/css"></style></defs><path d="M151.31783 556.31747 151.31783 883.907454C151.31783 920.029577 180.635004 949.418204 216.629434 949.418204L784.642673 949.418204C820.737084 949.418204 849.954278 920.237995 849.954278 884.101732L849.954278 567.069766 806.295364 567.069766 806.295364 884.101732C806.295364 896.113453 796.637303 905.759287 784.642673 905.759287L216.629434 905.759287C204.770979 905.759287 194.976744 895.941182 194.976744 883.907454L194.976744 556.31747 151.31783 556.31747 151.31783 556.31747Z" p-id="2456"></path><path d="M544.248062 927.255814 544.248062 305.116279 500.589148 305.116279 500.589148 927.255814 544.248062 927.255814 544.248062 927.255814Z" p-id="2457"></path><path d="M85.829457 326.945737 828.143565 326.945737C864.241261 326.945737 893.519379 356.278505 893.519379 392.485833L893.519379 545.240309 915.348836 523.410852 173.03473 523.410852C136.937034 523.410852 107.658915 494.078084 107.658915 457.870756L107.658915 305.116279 85.829457 326.945737 85.829457 326.945737ZM85.829457 283.286822 64 283.286822 64 305.116279 64 457.870756C64 518.17203 112.806637 567.069766 173.03473 567.069766L915.348836 567.069766 937.178295 567.069766 937.178295 545.240309 937.178295 392.485833C937.178295 332.184559 888.371659 283.286822 828.143565 283.286822L85.829457 283.286822 85.829457 283.286822Z" p-id="2458"></path><path d="M456.930234 261.457365 587.906976 261.457365 566.077519 239.627906 566.077519 305.116279 587.906976 283.286822 456.930234 283.286822 478.759691 305.116279 478.759691 239.627906 456.930234 261.457365 456.930234 261.457365ZM456.930234 217.79845 435.100774 217.79845 435.100774 239.627906 435.100774 305.116279 435.100774 326.945737 456.930234 326.945737 587.906976 326.945737 609.736433 326.945737 609.736433 305.116279 609.736433 239.627906 609.736433 217.79845 587.906976 217.79845 456.930234 217.79845 456.930234 217.79845Z" p-id="2459"></path><path d="M551.660693 251.486788C552.55357 250.106889 554.286927 247.460145 556.764205 243.728553 560.914573 237.47673 565.616813 230.502266 570.773873 222.987694 585.499725 201.530022 600.893771 180.079304 616.162106 160.113019 624.310061 149.458001 632.211424 139.508136 639.79069 130.397706 667.823241 96.702015 691.414249 75.906977 697.054263 75.906977 731.078613 75.906977 790.860256 113.663803 821.48217 154.493023 826.567552 161.273533 823.726334 180.275765 811.048563 206.999126 805.881086 217.891608 810.522118 230.910777 821.414601 236.078255 832.307083 241.245732 845.326251 236.6047 850.49373 225.712218 869.606571 185.424421 874.534694 152.464863 856.409301 128.297674 818.268427 77.443174 746.7095 32.248062 697.054263 32.248062 672.038714 32.248062 644.340604 56.663432 606.227876 102.475701 598.243548 112.073026 589.974942 122.485343 581.481306 133.592407 565.71088 154.21527 549.895622 176.252924 534.776514 198.283624 529.487838 205.989982 524.661009 213.149239 520.390835 219.581526 517.815787 223.460397 515.989067 226.2497 515.005973 227.769026 508.456493 237.890948 511.352531 251.40579 521.474453 257.955268 531.596375 264.504747 545.111215 261.60871 551.660693 251.486788L551.660693 251.486788Z" p-id="2460"></path><path d="M537.988958 227.769026C537.005865 226.2497 535.179145 223.460397 532.604096 219.581526 528.333922 213.149239 523.507093 205.989982 518.218415 198.283624 503.099307 176.252924 487.284049 154.21527 471.513626 133.592407 463.019987 122.485343 454.751383 112.073026 446.767055 102.475701 408.654327 56.663432 380.956218 32.248062 355.940668 32.248062 306.285431 32.248062 234.726504 77.443174 196.585628 128.297674 178.612682 152.261603 183.326064 184.892714 202.033209 224.720828 208.2705 238.000222 216.033171 251.855612 224.982418 266.060766 233.201436 279.106825 241.973779 291.750138 250.747785 303.541662 256.034751 310.646895 260.185632 315.936681 262.642498 318.939516L296.432634 291.293041C294.378822 288.782827 290.636015 284.013082 285.773954 277.478882 277.632915 266.538016 269.490213 254.802185 261.921855 242.788919 253.864791 229.999929 246.954809 217.666482 241.55017 206.159831 229.189078 179.842667 226.494032 161.18466 231.51276 154.493023 262.134675 113.663803 321.916316 75.906977 355.940668 75.906977 361.580681 75.906977 385.171691 96.702015 413.204241 130.397706 420.783505 139.508136 428.68487 149.458001 436.832823 160.113019 452.101161 180.079304 467.495204 201.530022 482.221058 222.987694 487.378116 230.502266 492.080356 237.47673 496.230726 243.728553 498.708002 247.460145 500.441361 250.106889 501.334236 251.486788L537.988958 227.769026 537.988958 227.769026Z" p-id="2461"></path></svg>